<?xml version="1.0" standalone="no"?><!DOCTYPE svg PUBLIC "-//W3C//DTD SVG 1.1//EN" "http://www.w3.org/Graphics/SVG/1.1/DTD/svg11.dtd"><svg height="1024" node-id="1" sillyvg="true" template-height="1024" template-width="1024" version="1.1" viewBox="0 0 1024 1024" width="1024" xmlns="http://www.w3.org/2000/svg" xmlns:xlink="http://www.w3.org/1999/xlink"><defs node-id="244"></defs><g node-id="882"><g node-id="925"><path d="M 469.90 828.50 L 439.40 828.90 L 408.10 828.80 L 350.80 828.00 L 293.50 828.90 L 262.20 828.90 L 231.70 828.50 L 237.40 825.00 L 242.70 821.30 L 247.60 817.40 L 252.00 813.30 L 257.60 807.40 L 262.50 801.40 L 266.90 795.20 L 270.80 788.70 L 274.10 782.20 L 277.00 775.70 L 279.50 769.00 L 283.10 756.30 L 284.40 750.00 L 285.90 738.70 L 415.30 738.70 L 416.90 750.00 L 418.30 756.30 L 422.00 769.00 L 424.50 775.70 L 427.40 782.20 L 430.80 788.70 L 434.70 795.20 L 439.00 801.40 L 444.00 807.40 L 449.60 813.30 L 454.00 817.40 L 458.90 821.30 L 464.20 825.00 L 469.90 828.50 Z" fill="#cddcff" fill-rule="nonzero" group-id="1,44" node-id="250" stroke="none" target-height="90.20001" target-width="238.2" target-x="231.7" target-y="738.7"></path></g></g><g node-id="883"><g node-id="926"><path d="M 594.20 398.30 L 594.20 734.50 L 593.90 737.30 L 593.30 739.80 L 592.20 742.00 L 590.80 744.00 L 589.00 745.70 L 587.00 747.10 L 584.80 748.10 L 582.30 748.80 L 579.70 749.00 L 121.80 749.00 L 119.20 748.80 L 116.80 748.10 L 114.50 747.00 L 112.50 745.60 L 110.80 743.90 L 109.30 741.80 L 108.20 739.60 L 107.60 737.10 L 107.30 734.50 L 107.30 398.30 L 107.50 395.70 L 108.20 393.30 L 109.30 391.00 L 110.70 389.00 L 112.40 387.30 L 114.50 385.80 L 116.70 384.70 L 119.20 384.10 L 121.80 383.80 L 579.70 383.80 L 582.30 384.00 L 584.70 384.70 L 587.00 385.70 L 589.00 387.10 L 590.70 388.80 L 592.20 390.80 L 593.30 393.10 L 593.90 395.50 L 594.20 398.30 Z" fill="#88b6e5" fill-rule="nonzero" group-id="2,45" node-id="258" stroke="none" target-height="365.2" target-width="486.90002" target-x="107.3" target-y="383.8"></path></g></g><g node-id="884"><g node-id="927"><path d="M 594.20 398.30 L 594.20 688.20 L 107.80 688.20 L 107.80 398.30 L 108.00 395.70 L 108.70 393.30 L 109.80 391.00 L 111.20 389.00 L 112.90 387.30 L 115.00 385.80 L 117.20 384.70 L 119.70 384.10 L 122.30 383.80 L 580.20 383.80 L 582.70 384.00 L 584.90 384.70 L 587.10 385.70 L 589.10 387.10 L 590.80 388.80 L 592.20 390.80 L 593.30 393.00 L 593.90 395.50 L 594.20 398.30 Z" fill="#bcd6f6" fill-rule="nonzero" group-id="3,46" node-id="266" stroke="none" target-height="304.40002" target-width="486.40002" target-x="107.8" target-y="383.8"></path></g></g><g node-id="885"><g node-id="928"><path d="M 576.90 401.60 L 125.10 401.60 L 125.10 671.40 L 576.40 671.40 L 576.40 401.60 L 576.90 401.60 Z" fill="#ffffff" fill-rule="nonzero" group-id="4,47" node-id="274" stroke="none" target-height="269.80002" target-width="451.80002" target-x="125.1" target-y="401.6"></path></g></g><g node-id="886"><g node-id="929"><path d="M 362.90 718.10 L 362.60 720.50 L 361.90 722.80 L 360.80 724.90 L 359.30 726.80 L 357.40 728.30 L 355.30 729.40 L 353.00 730.10 L 350.60 730.40 L 348.20 730.10 L 345.90 729.40 L 343.80 728.30 L 341.90 726.80 L 340.40 724.90 L 339.30 722.80 L 338.60 720.50 L 338.30 718.10 L 338.60 715.70 L 339.30 713.40 L 340.40 711.30 L 341.90 709.40 L 343.80 707.90 L 345.90 706.80 L 348.20 706.10 L 350.60 705.80 L 353.00 706.10 L 355.30 706.80 L 357.40 707.90 L 359.30 709.40 L 360.80 711.30 L 361.90 713.40 L 362.60 715.70 L 362.90 718.10 Z" fill="#4c96ec" fill-rule="nonzero" group-id="5,48" node-id="282" stroke="none" target-height="24.600037" target-width="24.600006" target-x="338.3" target-y="705.8"></path></g></g><g node-id="887"><g node-id="930"><path d="M 206.40 655.00 L 148.50 655.00 L 146.20 654.70 L 144.20 653.90 L 142.50 652.60 L 141.20 650.90 L 140.40 648.90 L 140.10 646.60 L 140.10 423.10 L 140.40 420.80 L 141.20 418.80 L 142.50 417.10 L 144.20 415.80 L 146.20 415.00 L 148.50 414.70 L 206.40 414.70 L 208.70 415.00 L 210.70 415.80 L 212.40 417.10 L 213.70 418.80 L 214.50 420.80 L 214.80 423.10 L 214.80 646.60 L 214.50 648.80 L 213.60 650.80 L 212.30 652.50 L 210.60 653.80 L 208.60 654.70 L 206.40 655.00 Z" fill="#e8edf8" fill-rule="nonzero" group-id="6,49" node-id="290" stroke="none" target-height="240.29999" target-width="74.7" target-x="140.1" target-y="414.7"></path></g></g><g node-id="888"><g node-id="931"><path d="M 191.40 445.50 L 191.10 448.30 L 190.30 451.00 L 187.80 455.00 L 185.80 456.80 L 182.80 458.50 L 178.00 459.60 L 174.50 459.30 L 171.80 458.50 L 167.80 456.00 L 166.00 454.00 L 164.30 451.00 L 163.20 446.20 L 163.50 442.70 L 164.30 440.00 L 166.80 436.00 L 168.80 434.20 L 171.80 432.50 L 176.60 431.40 L 180.10 431.70 L 182.80 432.50 L 186.80 435.00 L 188.60 437.00 L 190.30 440.00 L 191.10 442.70 L 191.40 445.50 Z" fill="#ff9c39" fill-rule="nonzero" group-id="7,50" node-id="298" stroke="none" target-height="28.200012" target-width="28.199997" target-x="163.2" target-y="431.4"></path></g></g><g node-id="889"><g node-id="932"><path d="M 202.10 480.10 L 152.60 480.10 L 151.80 479.90 L 151.20 478.70 L 151.40 474.20 L 152.60 473.60 L 201.70 473.60 L 202.50 473.80 L 203.10 475.00 L 203.20 479.30 L 202.10 480.10 Z" fill="#d0d8dd" fill-rule="nonzero" group-id="8,51" node-id="306" stroke="none" target-height="6.5" target-width="52" target-x="151.2" target-y="473.6"></path></g></g><g node-id="890"><g node-id="933"><path d="M 202.10 499.80 L 152.60 499.80 L 151.80 499.60 L 151.20 498.40 L 151.40 493.90 L 152.60 493.30 L 201.70 493.30 L 202.50 493.50 L 203.10 494.70 L 203.20 499.00 L 203.00 499.40 L 202.10 499.80 Z" fill="#d0d8dd" fill-rule="nonzero" group-id="9,52" node-id="314" stroke="none" target-height="6.5" target-width="52" target-x="151.2" target-y="493.3"></path></g></g><g node-id="891"><g node-id="934"><path d="M 202.10 519.40 L 152.60 519.40 L 151.80 519.20 L 151.20 518.00 L 151.40 513.50 L 152.60 512.90 L 201.70 512.90 L 202.50 513.10 L 203.10 514.30 L 203.20 518.60 L 202.10 519.40 Z" fill="#d0d8dd" fill-rule="nonzero" group-id="10,53" node-id="322" stroke="none" target-height="6.5" target-width="52" target-x="151.2" target-y="512.9"></path></g></g><g node-id="892"><g node-id="935"><path d="M 202.10 539.50 L 152.60 539.50 L 151.80 539.30 L 151.20 538.10 L 151.20 534.40 L 151.80 533.20 L 201.70 533.00 L 202.50 533.20 L 203.10 534.40 L 203.20 538.50 L 202.10 539.50 Z" fill="#d0d8dd" fill-rule="nonzero" group-id="11,54" node-id="330" stroke="none" target-height="6.5" target-width="52" target-x="151.2" target-y="533"></path></g></g><g node-id="893"><g node-id="936"><path d="M 202.10 559.10 L 152.60 559.10 L 151.80 558.90 L 151.20 557.70 L 151.20 554.00 L 151.40 553.20 L 151.80 552.80 L 201.70 552.60 L 202.50 552.80 L 203.10 554.00 L 203.20 558.10 L 202.10 559.10 Z" fill="#d0d8dd" fill-rule="nonzero" group-id="12,55" node-id="338" stroke="none" target-height="6.5" target-width="52" target-x="151.2" target-y="552.6"></path></g></g><g node-id="894"><g node-id="937"><path d="M 202.10 578.80 L 152.60 578.80 L 151.80 578.60 L 151.20 577.40 L 151.40 572.90 L 152.60 572.30 L 201.70 572.30 L 202.90 572.90 L 203.10 573.70 L 203.20 578.00 L 203.00 578.40 L 202.10 578.80 Z" fill="#d0d8dd" fill-rule="nonzero" group-id="13,56" node-id="346" stroke="none" target-height="6.5" target-width="52" target-x="151.2" target-y="572.3"></path></g></g><g node-id="895"><g node-id="938"><path d="M 193.30 598.40 L 162.00 598.40 L 161.20 598.20 L 160.60 597.00 L 160.60 593.30 L 161.20 592.10 L 193.30 591.90 L 194.10 592.10 L 194.70 593.30 L 194.50 597.60 L 193.30 598.40 Z" fill="#d0d8dd" fill-rule="nonzero" group-id="14,57" node-id="354" stroke="none" target-height="6.5" target-width="34.09999" target-x="160.6" target-y="591.9"></path></g></g><g node-id="896"><g node-id="939"><path d="M 380.60 621.30 L 255.90 621.30 L 255.90 628.30 L 380.60 628.30 L 380.60 621.30 Z" fill="#e8edf8" fill-rule="nonzero" group-id="15,58" node-id="362" stroke="none" target-height="7" target-width="124.70001" target-x="255.9" target-y="621.3"></path></g></g><g node-id="897"><g node-id="940"><path d="M 323.60 640.00 L 255.90 640.00 L 255.90 647.00 L 323.60 647.00 L 323.60 640.00 Z" fill="#cfdbe5" fill-rule="nonzero" group-id="16,59" node-id="370" stroke="none" target-height="7" target-width="67.70001" target-x="255.9" target-y="640"></path></g></g><g node-id="898"><g node-id="941"><path d="M 530.60 621.30 L 405.90 621.30 L 405.90 628.30 L 530.60 628.30 L 530.60 621.30 Z" fill="#cfdbe5" fill-rule="nonzero" group-id="17,60" node-id="378" stroke="none" target-height="7" target-width="124.69998" target-x="405.9" target-y="621.3"></path></g></g><g node-id="899"><g node-id="942"><path d="M 473.60 640.00 L 405.90 640.00 L 405.90 647.00 L 473.60 647.00 L 473.60 640.00 Z" fill="#e8edf8" fill-rule="nonzero" group-id="18,61" node-id="386" stroke="none" target-height="7" target-width="67.70001" target-x="405.9" target-y="640"></path></g></g><g node-id="900"><g node-id="943"><path d="M 418.60 379.90 L 494.70 423.90 L 497.70 418.80 L 421.60 374.80 L 418.10 372.80 L 414.50 371.40 L 410.90 370.50 L 407.10 370.10 L 403.30 370.20 L 399.30 370.80 L 300.40 390.50 L 301.60 396.30 L 400.50 376.60 L 404.30 376.10 L 408.00 376.10 L 411.60 376.70 L 415.00 378.00 L 418.60 379.90 Z" fill="#bbc1cf" fill-rule="evenodd" group-id="19,62" node-id="394" stroke="none" target-height="53.799988" target-width="197.30002" target-x="300.4" target-y="370.1"></path></g></g><g node-id="901"><g node-id="944"><path d="M 495.10 630.20 L 244.60 592.40 L 242.10 591.80 L 239.80 590.90 L 237.80 589.50 L 236.10 587.80 L 234.70 585.90 L 233.60 583.70 L 232.90 581.40 L 232.60 578.90 L 232.70 576.30 L 258.00 395.40 L 258.60 392.90 L 259.50 390.60 L 260.90 388.60 L 262.60 386.90 L 264.50 385.50 L 266.70 384.40 L 269.00 383.70 L 271.50 383.40 L 274.10 383.50 L 524.60 421.30 L 527.10 421.90 L 529.40 422.80 L 531.40 424.20 L 533.10 425.90 L 534.50 427.80 L 535.60 430.00 L 536.30 432.30 L 536.60 434.80 L 536.50 437.40 L 511.10 618.30 L 510.50 620.70 L 509.60 622.80 L 508.20 624.80 L 504.60 628.00 L 502.40 629.20 L 500.10 629.90 L 497.70 630.30 L 495.10 630.20 Z" fill="#ffffff" fill-rule="nonzero" group-id="20,63" node-id="402" stroke="none" target-height="246.9" target-width="303.99997" target-x="232.6" target-y="383.4"></path></g></g><g node-id="902"><g node-id="945"><path d="M 486.90 609.60 L 263.00 574.60 L 259.10 573.30 L 256.10 570.90 L 254.00 567.50 L 253.40 565.60 L 253.30 561.50 L 274.00 414.10 L 275.30 410.20 L 277.70 407.20 L 281.10 405.10 L 285.00 404.30 L 287.10 404.40 L 511.00 439.40 L 514.90 440.70 L 517.90 443.10 L 520.00 446.50 L 520.60 448.40 L 520.70 452.50 L 500.00 599.90 L 498.70 603.60 L 497.60 605.20 L 494.70 607.90 L 491.00 609.40 L 486.90 609.60 Z" fill="#eff3fb" fill-rule="nonzero" group-id="21,64" node-id="410" stroke="none" target-height="205.29999" target-width="267.40002" target-x="253.3" target-y="404.3"></path></g></g><g node-id="903"><g node-id="946"><path d="M 868.30 729.50 L 855.70 729.50 L 855.70 833.30 L 868.30 833.30 L 868.30 729.50 Z" fill="#b9c0d0" fill-rule="nonzero" group-id="22,65" node-id="418" stroke="none" target-height="103.79999" target-width="12.599976" target-x="855.7" target-y="729.5"></path></g></g><g node-id="904"><g node-id="947"><path d="M 958.40 729.50 L 945.80 729.50 L 945.80 833.30 L 958.40 833.30 L 958.40 729.50 Z" fill="#b9c0d0" fill-rule="nonzero" group-id="23,66" node-id="426" stroke="none" target-height="103.79999" target-width="12.600037" target-x="945.8" target-y="729.5"></path></g></g><g node-id="905"><g node-id="948"><path d="M 974.30 734.10 L 841.60 734.10 L 841.60 776.60 L 974.30 776.60 L 974.30 734.10 Z" fill="#e8edf8" fill-rule="nonzero" group-id="24,67" node-id="434" stroke="none" target-height="42.5" target-width="132.70001" target-x="841.6" target-y="734.1"></path></g></g><g node-id="906"><g node-id="949"><path d="M 873.90 734.10 L 859.90 776.60 L 844.00 776.60 L 857.60 734.10 L 873.90 734.10 Z" fill="#cdd4df" fill-rule="nonzero" group-id="25,68" node-id="442" stroke="none" target-height="42.5" target-width="29.900024" target-x="844" target-y="734.1"></path></g></g><g node-id="907"><g node-id="950"><path d="M 906.10 734.10 L 892.10 776.60 L 876.20 776.60 L 889.80 734.10 L 906.10 734.10 Z" fill="#cdd4df" fill-rule="nonzero" group-id="26,69" node-id="450" stroke="none" target-height="42.5" target-width="29.899963" target-x="876.2" target-y="734.1"></path></g></g><g node-id="908"><g node-id="951"><path d="M 938.30 734.10 L 924.30 776.60 L 908.40 776.60 L 922.00 734.10 L 938.30 734.10 Z" fill="#cdd4df" fill-rule="nonzero" group-id="27,70" node-id="458" stroke="none" target-height="42.5" target-width="29.899963" target-x="908.4" target-y="734.1"></path></g></g><g node-id="909"><g node-id="952"><path d="M 970.60 734.10 L 956.60 776.60 L 940.70 776.60 L 954.20 734.10 L 970.60 734.10 Z" fill="#cdd4df" fill-rule="nonzero" group-id="28,71" node-id="466" stroke="none" target-height="42.5" target-width="29.899963" target-x="940.7" target-y="734.1"></path></g></g><g node-id="910"><g node-id="953"><path d="M 820.70 819.20 L 642.30 819.20 L 642.30 833.70 L 820.80 833.70 L 820.80 819.20 Z" fill="#aab2c3" fill-rule="nonzero" group-id="29,72" node-id="474" stroke="none" target-height="14.5" target-width="178.5" target-x="642.3" target-y="819.2"></path></g></g><g node-id="911"><g node-id="954"><path d="M 809.20 785.10 L 808.40 783.30 L 806.00 780.70 L 802.70 779.20 L 800.80 779.00 L 661.80 779.00 L 659.90 779.20 L 658.20 779.80 L 655.30 781.90 L 653.40 785.10 L 642.30 819.20 L 820.30 819.20 L 809.20 785.10 Z" fill="#cad0dd" fill-rule="nonzero" group-id="30,73" node-id="482" stroke="none" target-height="40.200012" target-width="178" target-x="642.3" target-y="779"></path></g></g><g node-id="912"><g node-id="955"><path d="M 791.50 755.20 L 671.50 755.20 L 669.90 755.40 L 667.30 756.90 L 666.40 758.10 L 665.80 759.50 L 665.60 761.10 L 665.60 779.00 L 797.40 779.00 L 797.40 761.10 L 797.20 759.50 L 796.60 758.10 L 794.40 756.00 L 793.10 755.40 L 791.50 755.20 Z" fill="#aeb7c8" fill-rule="nonzero" group-id="31,74" node-id="490" stroke="none" target-height="23.799988" target-width="131.80005" target-x="665.6" target-y="755.2"></path></g></g><g node-id="913"><g node-id="956"><g node-id="1004"><path d="M 414.10 312.40 L 414.10 255.40 L 420.00 255.40 L 420.00 312.40 L 414.10 312.40 Z" fill="#b2c7db" fill-rule="evenodd" group-id="32,75,123" node-id="500" stroke="none" target-height="57" target-width="5.899994" target-x="414.1" target-y="255.4"></path></g></g><g node-id="957"><g node-id="1005"><path d="M 433.90 320.60 L 433.60 323.80 L 432.60 327.00 L 431.10 329.80 L 429.60 331.70 L 427.20 333.90 L 424.40 335.60 L 422.10 336.50 L 418.10 337.20 L 412.50 336.50 L 410.20 335.60 L 406.20 332.90 L 404.00 330.50 L 402.30 327.70 L 401.40 325.40 L 400.70 321.40 L 401.40 315.80 L 402.30 313.50 L 405.00 309.50 L 407.40 307.30 L 410.20 305.60 L 412.50 304.70 L 416.50 304.00 L 422.10 304.70 L 426.50 306.80 L 428.40 308.30 L 430.60 310.70 L 432.30 313.50 L 433.60 317.40 L 433.90 320.60 Z" fill="#b2c7db" fill-rule="nonzero" group-id="32,76,124" node-id="508" stroke="none" target-height="33.200012" target-width="33.19998" target-x="400.7" target-y="304"></path></g></g><g node-id="958"><g node-id="1006"><path d="M 421.00 342.30 L 421.00 327.80 L 415.00 327.80 L 415.20 344.50 L 415.80 346.40 L 416.90 348.20 L 418.20 349.70 L 419.80 350.80 L 424.10 352.50 L 426.20 353.80 L 427.90 355.50 L 429.40 357.60 L 430.50 360.00 L 431.20 362.40 L 431.30 365.00 L 431.00 367.80 L 430.20 370.20 L 429.00 372.30 L 427.50 374.20 L 425.60 375.80 L 423.50 377.00 L 418.30 378.10 L 415.80 378.10 L 413.40 377.60 L 411.20 376.60 L 409.10 375.20 L 407.30 373.50 L 405.90 371.60 L 404.90 369.50 L 404.30 367.20 L 404.10 364.60 L 398.20 364.60 L 398.50 368.30 L 399.40 371.50 L 400.80 374.50 L 402.80 377.30 L 405.40 379.80 L 407.90 381.60 L 410.60 382.90 L 413.30 383.70 L 416.10 384.10 L 419.20 384.00 L 425.00 382.60 L 429.60 380.10 L 433.40 376.20 L 435.90 371.60 L 436.70 369.00 L 437.10 365.80 L 437.10 362.90 L 436.70 360.10 L 435.80 357.30 L 434.40 354.50 L 432.70 352.00 L 430.80 349.90 L 428.60 348.20 L 426.20 346.80 L 422.40 345.30 L 421.20 343.70 L 421.00 342.30 Z" fill="#b2c7db" fill-rule="evenodd" group-id="32,77,125" node-id="516" stroke="none" target-height="56.30002" target-width="38.899994" target-x="398.2" target-y="327.8"></path></g></g><g node-id="959"><g node-id="1007"><path d="M 364.70 260.60 L 875.80 260.60 L 878.80 257.60 L 878.80 203.00 L 875.80 200.00 L 414.20 204.70 L 412.10 205.60 L 362.60 255.60 L 364.70 260.60 Z M 872.90 254.70 L 371.80 254.70 L 415.50 210.60 L 872.90 206.00 L 872.90 254.70 Z" fill="#b2c7db" fill-rule="evenodd" group-id="32,78,126" node-id="524" stroke="none" target-height="60.600006" target-width="516.19995" target-x="362.6" target-y="200"></path></g></g><g node-id="960"><g node-id="1008"><path d="M 582.80 214.20 L 582.80 257.70 L 588.70 257.70 L 588.70 207.70 L 583.80 205.50 L 531.70 251.20 L 531.70 207.70 L 526.80 205.50 L 474.20 251.30 L 474.20 207.80 L 469.30 205.60 L 417.20 251.30 L 417.20 207.80 L 411.30 207.80 L 411.30 257.80 L 416.20 260.00 L 468.30 214.30 L 468.30 257.80 L 473.20 260.00 L 525.80 214.20 L 525.80 257.70 L 530.70 259.90 L 582.80 214.20 Z" fill="#b2c7db" fill-rule="evenodd" group-id="32,79,127" node-id="532" stroke="none" target-height="54.5" target-width="177.40002" target-x="411.3" target-y="205.5"></path></g></g><g node-id="961"><g node-id="1009"><path d="M 811.70 257.70 L 811.70 203.90 L 817.60 203.90 L 817.60 257.70 L 811.70 257.70 Z" fill="#b2c7db" fill-rule="evenodd" group-id="32,80,128" node-id="540" stroke="none" target-height="53.80002" target-width="5.8999634" target-x="811.7" target-y="203.9"></path></g></g><g node-id="962"><g node-id="1010"><path d="M 645.20 259.90 L 702.20 209.90 L 698.30 205.50 L 646.20 251.20 L 646.20 207.70 L 640.30 207.70 L 640.30 257.70 L 645.20 259.90 Z" fill="#b2c7db" fill-rule="evenodd" group-id="32,81,129" node-id="548" stroke="none" target-height="54.399994" target-width="61.900024" target-x="640.3" target-y="205.5"></path></g></g><g node-id="963"><g node-id="1011"><path d="M 697.20 257.70 L 697.20 207.70 L 703.10 207.70 L 703.10 257.70 L 697.20 257.70 Z" fill="#b2c7db" fill-rule="evenodd" group-id="32,82,130" node-id="556" stroke="none" target-height="50.000015" target-width="5.8999634" target-x="697.2" target-y="207.7"></path></g></g><g node-id="964"><g node-id="1012"><path d="M 700.70 758.60 L 761.90 758.60 L 764.90 755.60 L 764.90 152.00 L 764.00 149.80 L 733.60 121.30 L 729.60 121.30 L 698.80 149.80 L 697.90 152.00 L 697.90 755.60 L 700.70 758.60 Z M 758.90 752.70 L 703.60 752.70 L 703.60 153.30 L 731.50 127.50 L 758.90 153.30 L 758.90 752.70 Z" fill="#b2c7db" fill-rule="evenodd" group-id="32,83,131" node-id="564" stroke="none" target-height="637.3" target-width="67" target-x="697.9" target-y="121.3"></path></g></g><g node-id="965"><g node-id="1013"><path d="M 761.90 158.20 L 700.70 158.20 L 700.70 152.30 L 761.90 152.30 L 761.90 158.20 Z" fill="#b2c7db" fill-rule="evenodd" group-id="32,84,132" node-id="572" stroke="none" target-height="5.899994" target-width="61.200012" target-x="700.7" target-y="152.3"></path></g></g><g node-id="966"><g node-id="1014"><path d="M 761.90 312.50 L 700.70 312.50 L 700.70 306.60 L 761.90 306.60 L 761.90 312.50 Z" fill="#b2c7db" fill-rule="evenodd" group-id="32,85,133" node-id="580" stroke="none" target-height="5.899994" target-width="61.200012" target-x="700.7" target-y="306.6"></path></g></g><g node-id="967"><g node-id="1015"><path d="M 761.90 362.10 L 700.70 362.10 L 700.70 356.20 L 761.90 356.20 L 761.90 362.10 Z" fill="#b2c7db" fill-rule="evenodd" group-id="32,86,134" node-id="588" stroke="none" target-height="5.899994" target-width="61.200012" target-x="700.7" target-y="356.2"></path></g></g><g node-id="968"><g node-id="1016"><path d="M 761.90 411.20 L 700.70 411.20 L 700.70 405.30 L 761.90 405.30 L 761.90 411.20 Z" fill="#b2c7db" fill-rule="evenodd" group-id="32,87,135" node-id="596" stroke="none" target-height="5.9000244" target-width="61.200012" target-x="700.7" target-y="405.3"></path></g></g><g node-id="969"><g node-id="1017"><path d="M 761.90 460.80 L 700.70 460.80 L 700.70 454.90 L 761.90 454.90 L 761.90 460.80 Z" fill="#b2c7db" fill-rule="evenodd" group-id="32,88,136" node-id="604" stroke="none" target-height="5.899994" target-width="61.200012" target-x="700.7" target-y="454.9"></path></g></g><g node-id="970"><g node-id="1018"><path d="M 761.90 510.30 L 700.70 510.30 L 700.70 504.40 L 761.90 504.40 L 761.90 510.30 Z" fill="#b2c7db" fill-rule="evenodd" group-id="32,89,137" node-id="612" stroke="none" target-height="5.899994" target-width="61.200012" target-x="700.7" target-y="504.4"></path></g></g><g node-id="971"><g node-id="1019"><path d="M 761.90 559.90 L 700.70 559.90 L 700.70 554.00 L 761.90 554.00 L 761.90 559.90 Z" fill="#b2c7db" fill-rule="evenodd" group-id="32,90,138" node-id="620" stroke="none" target-height="5.9000244" target-width="61.200012" target-x="700.7" target-y="554"></path></g></g><g node-id="972"><g node-id="1020"><path d="M 761.90 609.00 L 700.70 609.00 L 700.70 603.10 L 761.90 603.10 L 761.90 609.00 Z" fill="#b2c7db" fill-rule="evenodd" group-id="32,91,139" node-id="628" stroke="none" target-height="5.9000244" target-width="61.200012" target-x="700.7" target-y="603.1"></path></g></g><g node-id="973"><g node-id="1021"><path d="M 761.90 658.50 L 700.70 658.50 L 700.70 652.60 L 761.90 652.60 L 761.90 658.50 Z" fill="#b2c7db" fill-rule="evenodd" group-id="32,92,140" node-id="636" stroke="none" target-height="5.9000244" target-width="61.200012" target-x="700.7" target-y="652.6"></path></g></g><g node-id="974"><g node-id="1022"><path d="M 761.90 708.10 L 700.70 708.10 L 700.70 702.20 L 761.90 702.20 L 761.90 708.10 Z" fill="#b2c7db" fill-rule="evenodd" group-id="32,93,141" node-id="644" stroke="none" target-height="5.8999634" target-width="61.200012" target-x="700.7" target-y="702.2"></path></g></g><g node-id="975"><g node-id="1023"><path d="M 731.10 126.70 L 859.40 206.00 L 862.50 201.00 L 733.10 121.00 L 730.70 120.70 L 458.80 204.40 L 460.50 210.10 L 731.10 126.70 Z" fill="#b2c7db" fill-rule="evenodd" group-id="32,94,142" node-id="652" stroke="none" target-height="89.40001" target-width="403.7" target-x="458.8" target-y="120.7"></path></g></g><g node-id="976"><g node-id="1024"><path d="M 763.80 207.10 L 702.10 259.90 L 698.30 255.40 L 760.00 202.60 L 763.80 207.10 Z" fill="#b2c7db" fill-rule="evenodd" group-id="32,95,143" node-id="660" stroke="none" target-height="57.299988" target-width="65.5" target-x="698.3" target-y="202.6"></path></g></g><g node-id="977"><g node-id="1025"><path d="M 761.90 261.80 L 704.00 310.00 L 700.20 305.50 L 758.10 257.30 L 761.90 261.80 Z" fill="#b2c7db" fill-rule="evenodd" group-id="32,96,144" node-id="668" stroke="none" target-height="52.700012" target-width="61.700012" target-x="700.2" target-y="257.3"></path></g></g><g node-id="978"><g node-id="1026"><path d="M 761.90 158.50 L 703.50 205.30 L 699.80 200.70 L 758.20 153.90 L 761.90 158.50 Z" fill="#b2c7db" fill-rule="evenodd" group-id="32,97,145" node-id="676" stroke="none" target-height="51.40001" target-width="62.100037" target-x="699.8" target-y="153.9"></path></g></g><g node-id="979"><g node-id="1027"><path d="M 815.00 206.90 L 766.40 258.80 L 762.10 254.80 L 810.70 202.90 L 815.00 206.90 Z" fill="#b2c7db" fill-rule="evenodd" group-id="32,98,146" node-id="684" stroke="none" target-height="55.899994" target-width="52.900024" target-x="762.1" target-y="202.9"></path></g></g><g node-id="980"><g node-id="1028"><path d="M 877.40 207.10 L 818.00 259.00 L 814.10 254.50 L 873.40 202.60 L 877.40 207.10 Z" fill="#b2c7db" fill-rule="evenodd" group-id="32,99,147" node-id="692" stroke="none" target-height="56.399994" target-width="63.30005" target-x="814.1" target-y="202.6"></path></g></g><g node-id="981"><g node-id="1029"><path d="M 643.30 209.40 L 589.60 257.60 L 585.70 253.20 L 639.40 205.00 L 643.30 209.40 Z" fill="#b2c7db" fill-rule="evenodd" group-id="32,100,148" node-id="700" stroke="none" target-height="52.600006" target-width="57.599976" target-x="585.7" target-y="205"></path></g></g><g node-id="982"><g node-id="1030"><path d="M 761.40 313.30 L 703.90 359.60 L 700.20 355.00 L 757.70 308.70 L 761.40 313.30 Z" fill="#b2c7db" fill-rule="evenodd" group-id="32,101,149" node-id="708" stroke="none" target-height="50.899994" target-width="61.200012" target-x="700.2" target-y="308.7"></path></g></g><g node-id="983"><g node-id="1031"><path d="M 761.40 363.30 L 703.90 408.70 L 700.20 404.10 L 757.70 358.70 L 761.40 363.30 Z" fill="#b2c7db" fill-rule="evenodd" group-id="32,102,150" node-id="716" stroke="none" target-height="50" target-width="61.200012" target-x="700.2" target-y="358.7"></path></g></g><g node-id="984"><g node-id="1032"><path d="M 761.80 412.40 L 703.90 458.20 L 700.20 453.60 L 758.10 407.80 L 761.80 412.40 Z" fill="#b2c7db" fill-rule="evenodd" group-id="32,103,151" node-id="724" stroke="none" target-height="50.400024" target-width="61.599976" target-x="700.2" target-y="407.8"></path></g></g><g node-id="985"><g node-id="1033"><path d="M 761.80 462.50 L 703.90 507.90 L 700.30 503.20 L 758.20 457.80 L 761.80 462.50 Z" fill="#b2c7db" fill-rule="evenodd" group-id="32,104,152" node-id="732" stroke="none" target-height="50.100006" target-width="61.5" target-x="700.3" target-y="457.8"></path></g></g><g node-id="986"><g node-id="1034"><path d="M 761.80 511.60 L 703.90 557.00 L 700.30 552.30 L 758.20 506.90 L 761.80 511.60 Z" fill="#b2c7db" fill-rule="evenodd" group-id="32,105,153" node-id="740" stroke="none" target-height="50.100006" target-width="61.5" target-x="700.3" target-y="506.9"></path></g></g><g node-id="987"><g node-id="1035"><path d="M 761.80 560.60 L 703.90 606.40 L 700.20 601.80 L 758.10 556.00 L 761.80 560.60 Z" fill="#b2c7db" fill-rule="evenodd" group-id="32,106,154" node-id="748" stroke="none" target-height="50.400024" target-width="61.599976" target-x="700.2" target-y="556"></path></g></g><g node-id="988"><g node-id="1036"><path d="M 761.80 610.20 L 703.90 656.00 L 700.20 651.40 L 758.10 605.60 L 761.80 610.20 Z" fill="#b2c7db" fill-rule="evenodd" group-id="32,107,155" node-id="756" stroke="none" target-height="50.400024" target-width="61.599976" target-x="700.2" target-y="605.6"></path></g></g><g node-id="989"><g node-id="1037"><path d="M 761.80 659.80 L 703.90 705.60 L 700.20 701.00 L 758.10 655.20 L 761.80 659.80 Z" fill="#b2c7db" fill-rule="evenodd" group-id="32,108,156" node-id="764" stroke="none" target-height="50.399963" target-width="61.599976" target-x="700.2" target-y="655.2"></path></g></g><g node-id="990"><g node-id="1038"><path d="M 761.80 709.80 L 703.90 755.20 L 700.30 750.50 L 758.20 705.10 L 761.80 709.80 Z" fill="#b2c7db" fill-rule="evenodd" group-id="32,109,157" node-id="772" stroke="none" target-height="50.100037" target-width="61.5" target-x="700.3" target-y="705.1"></path></g></g><path d="M 712.90 296.90 L 748.10 296.90 L 749.20 296.70 L 750.20 296.00 L 750.90 295.10 L 751.10 293.90 L 751.10 276.00 L 750.90 274.90 L 750.20 273.90 L 749.30 273.20 L 748.10 273.00 L 712.90 273.00 L 711.80 273.20 L 710.80 273.90 L 710.10 274.80 L 709.90 276.00 L 709.90 293.90 L 710.20 295.10 L 710.80 296.00 L 711.80 296.70 L 712.90 296.90 Z" fill="#b2c7db" fill-rule="nonzero" group-id="32,110,158" node-id="780" stroke="none" target-height="23.899994" target-width="41.19995" target-x="709.9" target-y="273"></path></g><g node-id="914"><g node-id="992"><g node-id="1040"><path d="M 633.90 303.00 L 668.90 338.10 L 670.80 339.70 L 672.90 340.80 L 675.20 341.60 L 677.30 341.80 L 765.10 341.80 L 765.10 259.50 L 629.70 259.50 L 629.70 294.10 L 631.20 299.10 L 632.40 301.20 L 633.90 303.00 Z" fill="#b9c0d0" fill-rule="nonzero" group-id="33,111,159" node-id="791" stroke="none" target-height="82.29999" target-width="135.39996" target-x="629.7" target-y="259.5"></path></g></g><path d="M 651.80 288.90 L 687.00 288.90 L 688.10 288.70 L 689.10 288.00 L 689.80 287.10 L 690.00 285.90 L 690.00 268.00 L 689.80 266.90 L 689.10 265.90 L 688.20 265.20 L 687.00 265.00 L 651.80 265.00 L 650.70 265.20 L 649.70 265.90 L 649.00 266.80 L 648.80 268.00 L 648.80 285.90 L 649.00 287.10 L 649.70 288.00 L 650.60 288.70 L 651.80 288.90 Z" fill="#ffffff" fill-rule="nonzero" group-id="33,112,160" node-id="799" stroke="none" target-height="23.899994" target-width="41.200012" target-x="648.8" target-y="265"></path></g><g node-id="915"><g node-id="994"><path d="M 1000.00 845.10 L 28.00 845.10 L 28.00 836.20 L 1000.00 836.20 L 1000.00 845.10 Z" fill="#cdd6e1" fill-rule="evenodd" group-id="34,113" node-id="808" stroke="none" target-height="8.899963" target-width="972" target-x="28" target-y="836.2"></path></g></g><g node-id="916"><g node-id="995"><path d="M 247.90 828.90 L 184.80 828.90 L 210.90 758.70 L 211.80 757.10 L 213.20 755.70 L 214.80 754.80 L 216.50 754.50 L 218.20 754.80 L 219.80 755.60 L 221.50 757.40 L 222.10 758.70 L 226.80 770.90 L 247.90 828.90 Z" fill="#e8edf8" fill-rule="nonzero" group-id="35,114" node-id="816" stroke="none" target-height="74.400024" target-width="63.09999" target-x="184.8" target-y="754.5"></path></g></g><g node-id="917"><g node-id="996"><path d="M 233.40 788.70 L 199.80 788.70 L 206.10 771.40 L 227.00 771.40 L 233.40 788.70 Z" fill="#cdd4df" fill-rule="nonzero" group-id="36,115" node-id="824" stroke="none" target-height="17.299988" target-width="33.59999" target-x="199.8" target-y="771.4"></path></g></g><g node-id="918"><g node-id="997"><path d="M 244.60 829.90 L 186.70 829.90 L 193.20 812.10 L 238.00 812.10 L 244.60 829.90 Z" fill="#cdd4df" fill-rule="nonzero" group-id="37,116" node-id="832" stroke="none" target-height="17.800049" target-width="57.90001" target-x="186.7" target-y="812.1"></path></g></g><g node-id="919"><g node-id="998"><path d="M 246.90 836.90 L 183.40 836.90 L 182.00 836.60 L 180.80 835.90 L 180.00 834.80 L 179.70 833.20 L 180.00 831.80 L 180.70 830.60 L 181.80 829.80 L 183.40 829.50 L 246.90 829.50 L 248.30 829.80 L 249.50 830.50 L 250.30 831.60 L 250.60 833.20 L 250.40 834.80 L 249.70 835.90 L 248.60 836.60 L 246.90 836.90 Z" fill="#e8edf8" fill-rule="nonzero" group-id="38,117" node-id="840" stroke="none" target-height="7.4000244" target-width="70.90001" target-x="179.7" target-y="829.5"></path></g></g><g node-id="920"><g node-id="999"><path d="M 593.60 828.90 L 530.50 828.90 L 556.60 758.70 L 557.50 757.10 L 558.90 755.70 L 560.50 754.80 L 562.20 754.50 L 563.90 754.80 L 565.50 755.60 L 567.20 757.40 L 567.80 758.70 L 572.50 770.90 L 593.60 828.90 Z" fill="#e8edf8" fill-rule="nonzero" group-id="39,118" node-id="848" stroke="none" target-height="74.400024" target-width="63.099976" target-x="530.5" target-y="754.5"></path></g></g><g node-id="921"><g node-id="1000"><path d="M 579.10 788.70 L 545.50 788.70 L 551.80 771.40 L 572.70 771.40 L 579.10 788.70 Z" fill="#cdd4df" fill-rule="nonzero" group-id="40,119" node-id="856" stroke="none" target-height="17.299988" target-width="33.599976" target-x="545.5" target-y="771.4"></path></g></g><g node-id="922"><g node-id="1001"><path d="M 590.20 830.90 L 532.30 830.90 L 538.80 813.10 L 583.70 813.10 L 590.20 830.90 Z" fill="#cdd4df" fill-rule="nonzero" group-id="41,120" node-id="864" stroke="none" target-height="17.800049" target-width="57.900024" target-x="532.3" target-y="813.1"></path></g></g><g node-id="923"><g node-id="1002"><path d="M 592.60 837.90 L 529.00 837.90 L 527.60 837.60 L 526.40 836.90 L 525.60 835.80 L 525.30 834.20 L 525.60 832.80 L 526.30 831.60 L 527.40 830.80 L 529.00 830.50 L 592.50 830.50 L 593.90 830.80 L 595.10 831.50 L 595.90 832.60 L 596.20 834.20 L 596.00 835.80 L 595.30 836.90 L 594.20 837.60 L 592.60 837.90 Z" fill="#e8edf8" fill-rule="nonzero" group-id="42,121" node-id="872" stroke="none" target-height="7.4000244" target-width="70.900024" target-x="525.3" target-y="830.5"></path></g></g><path d="M 843.70 835.40 L 223.00 835.40 L 223.00 826.50 L 843.70 826.50 L 843.70 835.40 Z" fill="#cdd6e1" fill-rule="evenodd" group-id="43,122" node-id="880" stroke="none" target-height="8.900024" target-width="620.7" target-x="223" target-y="826.5"></path></svg>